<?xml version="1.0" encoding="utf-8"?>
<svg viewBox="8.940696716308594e-8 0 20 16.020000457763672" fill-rule="evenodd"
    height="32" width="40" xmlns="http://www.w3.org/2000/svg" x="359.5" y="3.5"
    style="font-family: initial;">
    <style type="text/css">
        .st0 { fill: rgb(66, 133, 244); }
        .st1 { fill: rgb(174, 203, 250); }
        .st2 { fill: rgb(102, 157, 246); }
    </style>
    <path class="st0"
        d="M12.3 7.26l-1.22 1.22A1.71 1.71 0 0 1 10 11.49a1.74 1.74 0 0 1-1.33-.64l-1.22 1.22a3.43 3.43 0 0 0 5.984-1.381A3.43 3.43 0 0 0 12.3 7.26z" />
    <path class="st1"
        d="M10 3.52a6.25 6.25 0 0 0 0 12.5 6.25 6.25 0 0 0 0-12.5m0 10.74a4.45 4.45 0 0 1-3.157-7.597A4.45 4.45 0 0 1 14.44 9.82 4.44 4.44 0 0 1 10 14.26" />
    <path class="st2"
        d="M19.62 9.16l-2.56-.81a7.1 7.1 0 0 1 .17 1.53 7.62 7.62 0 0 1-.08 1.08h2.47a.44.44 0 0 0 .38-.42v-1a.44.44 0 0 0-.38-.42M10 2.78a7.48 7.48 0 0 1 1.5.15L10.58.38c-.07-.22-.21-.38-.42-.38h-.38a.45.45 0 0 0-.42.38l-.8 2.54A7.64 7.64 0 0 1 10 2.78m-7.23 7.1a7.1 7.1 0 0 1 .17-1.53l-2.56.81a.44.44 0 0 0-.38.42v1a.44.44 0 0 0 .38.42h2.47a7.62 7.62 0 0 1-.08-1.08" />
    <path class="st1"
        d="M10 7.26a2.5 2.5 0 1 0 0 5 2.5 2.5 0 1 0 0-5zm0 3.75a1.25 1.25 0 1 1 0-2.5 1.25 1.25 0 0 1 1.25 1.25A1.25 1.25 0 0 1 10 11.02z" />
</svg>