<?xml version="1.0" encoding="utf-8"?>
<svg
    viewBox="-0.0004219651164021343 0.0000746995210647583 17.95697784423828 20.00925636291504"
    height="40" width="36" xmlns="http://www.w3.org/2000/svg" x="479.5" y="-0.5"
    style="font-family: initial;">
    <style>
        .st0 { fill: rgb(102, 157, 246); }
        .st1 { fill: rgb(174, 203, 250); }
        .st2 { fill: rgb(66, 133, 244); }
    </style>
    <g fill-rule="evenodd">
        <path class="st0"
            d="M13.196 4.447l-4.22-2.51a2.86 2.86 0 0 1-1.25-1.71c0 0 .16-.32.38-.2l5.25 3.1c.63.37.24 2 .24 2a.77.77 0 0 0-.4-.68z" />
        <path class="st1"
            d="M14.466 10.687a.35.35 0 0 1-.16.33l-1 .68v-7.95c0-.27.17-.56-.06-.7l.92.68a.73.73 0 0 1 .35.65z" />
        <path class="st0"
            d="M8.976 11.597a.36.36 0 0 1-.2-.06l-3.46-2.06v.9l3.66 2.18.29-.57s-.22-.39-.29-.39zm.2 1.8a.36.36 0 0 1-.4 0l-3.46-2.06v.66a.42.42 0 0 0 .19.35l3.28 2a.37.37 0 0 0 .38 0 2 2 0 0 0 .2-.52l-.19-.39z" />
        <path class="st1"
            d="M8.976 10.727l3.66-2.18v-.43a.39.39 0 0 0-.19-.34l-3.28-2a.37.37 0 0 0-.38 0l-3.28 2a.41.41 0 0 0-.19.34v.43z" />
        <path class="st0"
            d="M8.976 9.827l-3.47-2.05a.41.41 0 0 0-.19.34v.43l3.66 2.18.28-.56z" />
        <g class="st2">
            <path
                d="M8.976 11.597v1l3.66-2.18v-.9l-3.46 2.02a.65.65 0 0 1-.2.06zm.2 1.8a.36.36 0 0 1-.2.06v.9a.5.5 0 0 0 .21-.05l3.28-2a.39.39 0 0 0 .19-.35v-.66z" />
            <path d="M12.446 7.777l-3.47 2.05v.9l3.66-2.18v-.43a.39.39 0 0 0-.19-.34z" />
        </g>
        <path class="st0"
            d="M4.756 15.527l4.15 2.47a2.72 2.72 0 0 1 1.28 1.8.18.18 0 0 1-.28.18l-5.45-3.23c-.53-.32-.07-1.88-.07-1.88a.77.77 0 0 0 .37.66z" />
        <path class="st1"
            d="M3.486 15.727v-6.56a.41.41 0 0 1 .19-.33l1-.59v7.91c0 .27 0 .69.21.83l-1.06-.66a.75.75 0 0 1-.34-.6z" />
        <path class="st0"
            d="M7.136 3.457a.75.75 0 0 0-.74 0l-4.2 2.54a2.63 2.63 0 0 1-2.08.26.23.23 0 0 1 0-.4c.18-.09 6.32-3.74 6.32-3.74.23-.14.74 1.39.74 1.39z" />
        <path class="st1"
            d="M7.126 2.077l5.32 3.15a.37.37 0 0 1 .2.31v1.18l-6.67-3.96a.75.75 0 0 0-.74 0l1.18-.69a.71.71 0 0 1 .73 0z" />
        <path class="st0"
            d="M10.796 16.487a.73.73 0 0 0 .74 0l4.2-2.49a2.63 2.63 0 0 1 2.1-.25.21.21 0 0 1 0 .38l-6.33 3.75c-.22.14-.74-1.4-.74-1.4z" />
        <path class="st1"
            d="M5.486 14.747a.56.56 0 0 1-.17-.33v-1.16l6.66 3.93a.69.69 0 0 0 .73 0l-1.18.7a.7.7 0 0 1-.74 0z" />
        <path class="st0"
            d="M3.236 7.807a.76.76 0 0 0-.37.65v5a2.75 2.75 0 0 1-.87 2 .18.18 0 0 1-.3-.13v-7.56c0-.28 1.54 0 1.54 0z" />
        <path class="st1"
            d="M6.746 4.517a.34.34 0 0 1 .36 0l1 .59-6.08 3.56a.77.77 0 0 0-.37.66v-1.39a.72.72 0 0 1 .38-.64z" />
        <path class="st0"
            d="M15.146 11.437v-5a2.81 2.81 0 0 1 .84-2c0 0 .33-.11.31.21s0 7.37 0 7.37c-.31.37-1.61 0-1.61 0a.81.81 0 0 0 .46-.58z" />
        <path class="st1"
            d="M15.976 12.607l-4.74 2.85a.35.35 0 0 1-.37 0l-1-.57 6.11-3.67a.77.77 0 0 0 .37-.66v1.44c-.02.23-.37.61-.37.61z" />
    </g>
</svg>