<?xml version="1.0" encoding="utf-8"?>
<svg viewBox="0 0 14.519999504089355 20" height="40" width="30"
    xmlns="http://www.w3.org/2000/svg" x="239.5" y="79.5" style="font-family: initial;">
    <style type="text/css">
        .st0 { fill-rule: evenodd; }
        .st1 { fill: rgb(102, 157, 246); }
        .st2 { fill: rgb(174, 203, 250); }
        .st3 { fill: rgb(66, 133, 244); }
    </style>
    <g class="st0">
        <path class="st1"
            d="M7.37 2.03l-1.72.96 1.52 1.5-.02 1.73 1.02.01.02-1.73 4.24 2.56-.01 1.07 1.77.03V6.11L9.05 3.04l-.27-.94z" />
        <path class="st2"
            d="M7.36 2.03l-1.42.35-.29.61L.39 5.92.36 7.97 2.14 8l.02-1.07 4.31-2.45-.02 1.73.86.01.06-4.19z" />
        <g class="st1">
            <path
                d="M7.36 2.03L3.95 0 2.21.95l3.44 2.04 1.72-.96zm.71 11.76l-1.72-.02-.02 1.72.82 2.48 1.42-.12.29-.85 5.27-2.93.03-2.09-1.79-.02-.02 1.1-4.3 2.45z" />
            <path d="M7.15 17.97l-3.46 1.94h-.05l-1.66-.99 3.49-1.96 1.68 1.01z" />
        </g>
        <path class="st3"
            d="M10.88.09h-.05L7.37 2.03l1.68 1.01 3.49-1.96zM10.62 20h-.05l-3.42-2.03h0 0 0l1.72-.96 3.44 2.04z" />
        <path class="st2"
            d="M.33 13.89v-2h1.76l-.01 1.04 4.25 2.56.02-1.72.86.01-.06 4.18-1.68-1z" />
    </g>
    <circle class="st2"
        r="1.14" cy="10.04" cx="13.38" />
    <circle class="st2"
        r="1.14" cy="9.88" cx="1.14" />
    <circle class="st2"
        r="1.14" cy="7.99" cx="7.32" />
    <circle class="st2"
        r="1.14" cy="12" cx="7.23" />
</svg>