<?xml version="1.0" encoding="utf-8"?>
<svg
    viewBox="-0.00020954696810804307 0.00017724082863423973 19.706531524658203 19.983821868896484"
    fill-rule="evenodd" height="40" width="40" xmlns="http://www.w3.org/2000/svg"
    x="-0.5" y="39.5" style="font-family: initial;">
    <style type="text/css">
        .st0 { fill: rgb(66, 133, 244); }
        .st1 { fill: rgb(102, 157, 246); }
    </style>
    <path class="st0"
        d="M10.345 10.396v-4.43h0a1.14 1.14 0 0 0-.5-2.164 1.14 1.14 0 0 0-.5 2.164v4.42h-4.27v-2.82a1.14 1.14 0 0 0-.53-2.15 1.14 1.14 0 0 0-.52 2.15v2.83h-.22a3.82 3.82 0 0 1-2.722-6.485 3.82 3.82 0 0 1 4.122-.895 5.22 5.22 0 0 1 9.44-.05 4 4 0 0 1 1.23-.2h0a3.83 3.83 0 1 1 0 7.66h-.25v-2.86a1.14 1.14 0 0 0-.53-2.149 1.14 1.14 0 0 0-.53 2.149v2.83z" />
    <path class="st1"
        d="M5.075 13.356a2 2 0 0 1 1.54 2 2.07 2.07 0 0 1-4.11.354 2.07 2.07 0 0 1 1.52-2.354v-2.96h1zm-.53 3a1 1 0 1 0 0-2 1 1 0 1 0 0 2zm11.08-3a2.07 2.07 0 0 1-.53 4.071 2.07 2.07 0 0 1-.53-4.071v-2.95h1.06zm-.53 3a1 1 0 0 0 .39-1.94 1 1 0 0 0-1.268 1.307 1 1 0 0 0 .878.633zm-4.75-.43h0a2.06 2.06 0 0 1-.5 4.058 2.06 2.06 0 0 1-.5-4.058v-5.5h1.06zm-.54 3a1 1 0 0 0 .55-1.832 1 1 0 0 0-1.48 1.212 1 1 0 0 0 .93.6z" />
</svg>